<svg width="226" height="32" viewBox="0 0 226 32" fill="none" xmlns="http://www.w3.org/2000/svg">
<g clip-path="url(#clip0_242_1427)">
<path d="M34.461 0C40.2149 5.15422e-07 44.8794 4.65624 44.8794 10.4C44.8794 16.1438 40.2149 20.8 34.461 20.8H27.6364L38.8563 32H25.2572L12.6286 19.3938C11.7584 18.5251 11.2199 17.3255 11.2199 16C11.2199 13.349 13.3727 11.2 16.0284 11.2H34.461C34.9036 11.2 35.2624 10.8418 35.2624 10.4C35.2624 9.95816 34.9036 9.6 34.461 9.6H16.0284C12.4875 9.6 9.61702 12.4654 9.61702 16C9.61702 17.9121 10.4571 19.6278 11.7889 20.8H11.7708L22.9907 32H16.0284C7.17615 32 0 24.8366 0 16C0 7.16345 7.17614 0 16.0284 0H34.461Z" fill="white" fill-opacity="0.75"/>
<path d="M44.8795 22.4V32H41.1229L31.5059 22.4H44.8795Z" fill="white" fill-opacity="0.75"/>
<path d="M218.493 6.64343L218.613 6.684C220.17 6.72457 221.528 7.81991 221.927 9.32091L221.967 9.48315L226 26.116H220.65L218.254 16.2175L216.377 22.2621C215.818 23.9254 214.301 25.1019 212.544 25.1019C210.868 25.1019 209.35 24.0065 208.791 22.4244L208.711 22.2621L206.835 16.2175L204.439 26.116H199.128L203.121 9.48315L203.161 9.32091C203.6 7.73877 204.998 6.64343 206.635 6.64343L206.755 6.684C208.232 6.72457 209.51 7.6982 210.029 9.07747L210.069 9.19923L212.544 17.11L215.02 9.19923L215.06 9.07747C215.579 7.61706 216.936 6.64343 218.493 6.64343Z" fill="white" fill-opacity="0.75"/>
<path d="M189.317 26.116C184.006 26.116 179.734 21.7753 179.734 16.3797V6.64343H184.885V16.3797C184.885 18.8544 186.881 20.8828 189.317 20.8828C191.712 20.8828 193.708 18.8544 193.708 16.3797V6.64343H198.899V16.3797C198.899 21.7753 194.588 26.116 189.317 26.116Z" fill="white" fill-opacity="0.75"/>
<path d="M178.796 6.64343V11.9172C176.56 11.9172 174.603 13.4183 173.965 15.6089L173.046 18.6921C171.768 23.114 167.775 26.116 163.263 26.116V20.8828C165.46 20.8828 167.456 19.3818 168.095 17.1911L168.974 14.108C170.251 9.68603 174.244 6.64343 178.796 6.64343Z" fill="white" fill-opacity="0.75"/>
<path d="M158.09 15.0816C158.929 15.0816 159.647 14.392 159.647 13.4994C159.647 12.6475 158.929 11.9172 158.09 11.9172H152.381V15.0816H158.09ZM158.09 6.64343C161.804 6.64343 164.838 9.72659 164.838 13.4994C164.838 17.2723 161.804 20.3554 158.09 20.3554H152.381V26.116H147.23V11.3899C147.23 8.79355 149.307 6.64343 151.862 6.64343H158.09Z" fill="white" fill-opacity="0.75"/>
<path d="M139.556 6.64343H144.707V26.116H139.556V6.64343Z" fill="white" fill-opacity="0.75"/>
<path d="M127.941 11.6739H126.903C124.307 11.6739 122.231 13.7834 122.231 16.3797C122.231 19.0167 124.307 21.1262 126.903 21.1262H127.941C130.536 21.1262 132.612 19.0167 132.612 16.3797C132.612 13.7834 130.536 11.6739 127.941 11.6739ZM126.903 6.40002H127.941C133.371 6.40002 137.763 10.8625 137.763 16.3797C137.763 21.9375 133.371 26.4 127.941 26.4H126.903C121.473 26.4 117.08 21.9375 117.08 16.3797C117.08 10.8625 121.473 6.40002 126.903 6.40002Z" fill="white" fill-opacity="0.75"/>
<path d="M114.892 11.9172H104.83C102.395 11.9172 100.399 13.9456 100.399 16.3797C100.399 18.8544 102.395 20.8828 104.83 20.8828H109.822C110.341 20.8016 110.78 20.3554 110.78 19.7875V19.3007H102.994V14.0268H111.658C114.054 14.0268 115.931 15.974 115.931 18.3676V19.7875C115.931 23.2357 113.256 26.0349 109.862 26.116H104.83C99.5202 26.116 95.2478 21.7753 95.2478 16.3797C95.2478 11.0248 99.5202 6.64343 104.83 6.64343H114.892V11.9172Z" fill="white" fill-opacity="0.75"/>
<path d="M84.5119 11.6739H83.4733C80.8783 11.6739 78.8018 13.7834 78.8018 16.3797C78.8018 19.0167 80.8783 21.1262 83.4733 21.1262H84.5119C87.1069 21.1262 89.1834 19.0167 89.1834 16.3797C89.1834 13.7834 87.1069 11.6739 84.5119 11.6739ZM83.4733 6.40002H84.5119C89.9416 6.40002 94.3341 10.8625 94.3341 16.3797C94.3341 21.9375 89.9416 26.4 84.5119 26.4H83.4733C78.0432 26.4 73.6511 21.9375 73.6511 16.3797C73.6511 10.8625 78.0432 6.40002 83.4733 6.40002Z" fill="white" fill-opacity="0.75"/>
<path d="M56.9006 18.2459V6.64343H62.0514V18.2459C62.0514 19.7064 63.2092 20.8828 64.6467 20.8828H72.4327V26.116H64.6467C60.3744 26.116 56.9006 22.5867 56.9006 18.2459Z" fill="white" fill-opacity="0.75"/>
</g>
<defs>
<clipPath id="clip0_242_1427">
<rect width="226" height="32" fill="white"/>
</clipPath>
</defs>
</svg>
