<svg width="194" height="36" viewBox="0 0 194 36" fill="none" xmlns="http://www.w3.org/2000/svg">
<g clip-path="url(#clip0_242_1405)">
<path d="M18.0465 0C22.8327 3.60419e-07 27.4234 1.89602 30.8077 5.27168C31.4151 5.87752 31.9743 6.52247 32.4837 7.2H18.0465C15.1748 7.2 12.4206 8.33779 10.3899 10.3631C8.35933 12.3886 7.2186 15.1357 7.2186 18H18.0465L33.305 8.38741C34.4378 10.1767 35.2458 12.1524 35.6912 14.2224L28.8744 18H36.093L36.0877 18.4474C35.9729 23.0592 34.0863 27.4583 30.8077 30.7283C27.4234 34.104 22.8327 36 18.0465 36C13.2603 36 8.66968 34.104 5.2853 30.7283C4.67789 30.1225 4.11875 29.4775 3.6093 28.8H18.0465C20.9183 28.8 23.6724 27.6622 25.7031 25.6369C27.6068 23.7379 28.7285 21.2047 28.8612 18.5352L28.8744 18H18.0465L2.78804 27.6108C1.65533 25.8215 0.84909 23.8456 0.40358 21.7758L7.2186 18H0C7.227e-07 13.2261 1.90093 8.64734 5.2853 5.27168C8.66968 1.89603 13.2603 -5.21425e-10 18.0465 0Z" fill="white" fill-opacity="0.75"/>
<path d="M83.2615 27.399C84.1097 28.985 85.7467 29.9838 87.8569 29.9838C89.9668 29.9837 91.6032 28.9849 92.4514 27.399H95.6258C94.5754 30.5683 91.6609 32.6872 87.8569 32.6874C84.0524 32.6874 81.1376 30.5684 80.0875 27.399H83.2615Z" fill="white" fill-opacity="0.75"/>
<path fill-rule="evenodd" clip-rule="evenodd" d="M129.486 10.5839C134.323 10.5839 137.711 13.9022 137.711 18.6645C137.711 23.7034 133.953 26.5615 129.979 26.5615C127.515 26.5614 125.421 25.455 124.312 23.4888V32.6444H121.384V18.6953C121.384 13.7485 124.774 10.5839 129.486 10.5839ZM129.517 13.2874C126.406 13.2874 124.312 15.4998 124.312 18.5722C124.312 21.6447 126.406 23.8571 129.517 23.8571C132.659 23.8571 134.754 21.6448 134.754 18.5722C134.754 15.4998 132.659 13.2874 129.517 13.2874Z" fill="white" fill-opacity="0.75"/>
<path fill-rule="evenodd" clip-rule="evenodd" d="M70.4342 10.5839C75.2396 10.5839 78.6282 13.9635 78.6282 18.5722C78.6282 23.181 75.2397 26.5615 70.4342 26.5615C65.6287 26.5615 62.2401 23.181 62.2401 18.5722C62.2403 13.9635 65.6287 10.5839 70.4342 10.5839ZM70.4342 13.2874C67.2922 13.2874 65.1975 15.4998 65.1974 18.5722C65.1974 21.6448 67.2921 23.8571 70.4342 23.8571C73.5763 23.8571 75.671 21.6448 75.671 18.5722C75.671 15.4998 73.5762 13.2874 70.4342 13.2874Z" fill="white" fill-opacity="0.75"/>
<path fill-rule="evenodd" clip-rule="evenodd" d="M88.1812 10.5909H96.141V13.2012H94.0882C95.3316 14.5919 96.0508 16.4514 96.0508 18.5722C96.0508 23.1809 92.6626 26.5613 87.857 26.5615C83.0514 26.5615 79.6628 23.181 79.6628 18.5722C79.663 13.9635 83.0514 10.5839 87.857 10.5839C87.9658 10.5839 88.0739 10.5874 88.1812 10.5909ZM87.857 13.2874C84.715 13.2874 82.6202 15.4998 82.6201 18.5722C82.6201 21.6448 84.7149 23.8571 87.857 23.8571C90.9987 23.8569 93.093 21.6446 93.093 18.5722C93.093 15.4999 90.9987 13.2876 87.857 13.2874Z" fill="white" fill-opacity="0.75"/>
<path fill-rule="evenodd" clip-rule="evenodd" d="M105.279 10.5839C110.084 10.5839 113.473 13.9635 113.473 18.5722C113.473 23.181 110.085 26.5615 105.279 26.5615C100.473 26.5615 97.0848 23.181 97.0848 18.5722C97.0848 13.9635 100.473 10.5839 105.279 10.5839ZM105.279 13.2874C102.137 13.2874 100.042 15.4998 100.042 18.5722C100.042 21.6448 102.137 23.8571 105.279 23.8571C108.421 23.8571 110.516 21.6448 110.516 18.5722C110.515 15.4998 108.421 13.2874 105.279 13.2874Z" fill="white" fill-opacity="0.75"/>
<path d="M145.108 10.5839C148.744 10.584 150.992 12.6428 151.054 15.2543H148.157C148.065 14.0868 146.988 13.226 145.14 13.2258C143.199 13.2258 142.09 14.1483 142.09 15.3467C142.09 16.7904 143.692 16.9439 145.57 17.1897C148.22 17.5276 151.454 18.0194 151.454 21.4911C151.454 24.5635 148.959 26.5613 145.14 26.5615C141.32 26.5615 138.917 24.5331 138.825 21.7679H141.781C141.843 23.0276 143.014 23.9186 145.14 23.9186C147.357 23.9184 148.497 22.9662 148.497 21.7679C148.497 20.3238 146.895 20.139 144.986 19.8932C142.336 19.5552 139.132 19.0638 139.132 15.5918C139.132 12.6116 141.474 10.5839 145.108 10.5839Z" fill="white" fill-opacity="0.75"/>
<path d="M156.087 18.9096C156.087 22.1973 157.905 23.857 160.677 23.857C163.45 23.857 165.267 22.1972 165.267 18.9096V10.9828H168.194V18.9096C168.194 23.9486 165.175 26.5605 160.677 26.5605C156.18 26.5605 153.161 23.9793 153.161 18.9096V10.9828H156.087V18.9096Z" fill="white" fill-opacity="0.75"/>
<path d="M50.0632 23.2735H61.3687V26.1616H46.9209V6.06714H50.0632V23.2735Z" fill="white" fill-opacity="0.75"/>
<path d="M118.603 26.1616H115.677V10.9828H118.603V26.1616Z" fill="white" fill-opacity="0.75"/>
<path d="M187.467 10.5839C191.04 10.5839 193.752 12.7347 193.752 17.3743V26.1616H190.825V17.3743C190.825 14.5477 189.316 13.2875 187.19 13.2874C185.127 13.2874 183.585 14.6089 183.585 17.3743V26.1616H180.659V17.3743C180.659 14.6089 179.088 13.2874 177.025 13.2874C174.899 13.2875 173.389 14.5476 173.389 17.3743V26.1616H170.463V17.3743C170.463 12.7347 173.174 10.5839 176.748 10.5839C179.088 10.584 181.06 11.6287 182.107 13.595C183.154 11.6286 185.095 10.5839 187.467 10.5839Z" fill="white" fill-opacity="0.75"/>
<path d="M117.125 4.5C118.296 4.5 119.158 5.36019 119.159 6.52764C119.159 7.69521 118.296 8.58692 117.125 8.58692C115.955 8.58679 115.093 7.69513 115.093 6.52764C115.093 5.36027 115.955 4.50012 117.125 4.5Z" fill="white" fill-opacity="0.75"/>
</g>
<defs>
<clipPath id="clip0_242_1405">
<rect width="194" height="36" fill="white"/>
</clipPath>
</defs>
</svg>
