<svg width="171" height="32" viewBox="0 0 171 32" fill="none" xmlns="http://www.w3.org/2000/svg">
<g clip-path="url(#clip0_242_1392)">
<path d="M164.783 8.18884L164.878 8.22036C166.103 8.2518 167.173 9.10164 167.487 10.2661L167.519 10.392L170.693 23.2961H166.481L164.595 15.6166L163.117 20.3061C162.677 21.5966 161.482 22.5093 160.099 22.5093C158.779 22.5093 157.585 21.6595 157.144 20.432L157.081 20.3061L155.604 15.6166L153.718 23.2961H149.536L152.68 10.392L152.712 10.2661C153.058 9.03868 154.157 8.18884 155.447 8.18884L155.541 8.22036C156.704 8.2518 157.71 9.00716 158.119 10.0773L158.15 10.1717L160.099 16.309L162.048 10.1717L162.08 10.0773C162.488 8.9442 163.558 8.18884 164.783 8.18884Z" fill="white" fill-opacity="0.75"/>
<path d="M141.812 23.2961C137.63 23.2961 134.267 19.9284 134.267 15.7425V8.18884H138.322V15.7425C138.322 17.6624 139.894 19.236 141.812 19.236C143.698 19.236 145.269 17.6624 145.269 15.7425V8.18884H149.357V15.7425C149.357 19.9284 145.961 23.2961 141.812 23.2961Z" fill="white" fill-opacity="0.75"/>
<path d="M133.528 8.18884V12.2804C131.768 12.2804 130.227 13.4449 129.724 15.1445L129.001 17.5365C127.995 20.9671 124.852 23.2961 121.299 23.2961V19.236C123.028 19.236 124.6 18.0716 125.103 16.372L125.794 13.98C126.801 10.5494 129.944 8.18884 133.528 8.18884Z" fill="white" fill-opacity="0.75"/>
<path d="M117.226 14.7353C117.886 14.7353 118.452 14.2003 118.452 13.5079C118.452 12.8469 117.886 12.2804 117.226 12.2804H112.731V14.7353H117.226ZM117.226 8.18884C120.15 8.18884 122.539 10.5808 122.539 13.5079C122.539 16.4349 120.15 18.8269 117.226 18.8269H112.731V23.2961H108.675V11.8712C108.675 9.857 110.31 8.18884 112.322 8.18884H117.226Z" fill="white" fill-opacity="0.75"/>
<path d="M102.633 8.18884H106.688V23.2961H102.633V8.18884Z" fill="white" fill-opacity="0.75"/>
<path d="M93.4883 12.0915H92.6709C90.6276 12.0915 88.9928 13.7282 88.9928 15.7425C88.9928 17.7882 90.6276 19.4249 92.6709 19.4249H93.4883C95.5315 19.4249 97.1664 17.7882 97.1664 15.7425C97.1664 13.7282 95.5315 12.0915 93.4883 12.0915ZM92.6709 8H93.4883C97.7633 8 101.222 11.4621 101.222 15.7425C101.222 20.0543 97.7633 23.5164 93.4883 23.5164H92.6709C88.3959 23.5164 84.9375 20.0543 84.9375 15.7425C84.9375 11.4621 88.3959 8 92.6709 8Z" fill="white" fill-opacity="0.75"/>
<path d="M83.2147 12.2804H75.2928C73.3751 12.2804 71.8034 13.8541 71.8034 15.7425C71.8034 17.6624 73.3751 19.236 75.2928 19.236H79.2224C79.6311 19.1731 79.9769 18.8269 79.9769 18.3863V18.0086H73.8467V13.9171H80.6689C82.5546 13.9171 84.0321 15.4278 84.0321 17.2847V18.3863C84.0321 21.0616 81.9258 23.2332 79.2539 23.2961H75.2928C71.1117 23.2961 67.748 19.9284 67.748 15.7425C67.748 11.588 71.1117 8.18884 75.2928 8.18884H83.2147V12.2804Z" fill="white" fill-opacity="0.75"/>
<path d="M59.2951 12.0915H58.4777C56.4342 12.0915 54.7996 13.7282 54.7996 15.7425C54.7996 17.7882 56.4342 19.4249 58.4777 19.4249H59.2951C61.3384 19.4249 62.9731 17.7882 62.9731 15.7425C62.9731 13.7282 61.3384 12.0915 59.2951 12.0915ZM58.4777 8H59.2951C63.5704 8 67.0284 11.4621 67.0284 15.7425C67.0284 20.0543 63.5704 23.5164 59.2951 23.5164H58.4777C54.2023 23.5164 50.7443 20.0543 50.7443 15.7425C50.7443 11.4621 54.2023 8 58.4777 8Z" fill="white" fill-opacity="0.75"/>
<path d="M37.556 17.1903V8.18884H41.6114V17.1903C41.6114 18.3233 42.523 19.236 43.6547 19.236H49.7849V23.2961H43.6547C40.291 23.2961 37.556 20.558 37.556 17.1903Z" fill="white" fill-opacity="0.75"/>
<path d="M6.08273 2.00894C8.82256 0.48715 11.9491 -0.194778 15.073 0.0479983C18.1967 0.290784 21.1804 1.44777 23.6528 3.37456C26.1252 5.30143 27.9771 7.91402 28.9786 10.8862C29.9801 13.8585 30.0874 17.0601 29.2861 20.0926L29.1253 20.6574C28.2725 23.4635 26.6644 25.9854 24.4722 27.9426L24.0266 28.3254C21.7698 30.1957 19.0394 31.4114 16.1327 31.8339L15.5505 31.9082C13.5829 32.1207 11.5998 31.963 9.70033 31.4534L12.4292 28.7214C13.5029 28.8404 14.5929 28.8246 15.6731 28.6675C18.1536 28.307 20.4741 27.2243 22.345 25.5542C24.2158 23.8842 25.5548 21.6997 26.1959 19.2738C26.7968 16.9994 26.7593 14.6061 26.0921 12.3566L25.9501 11.909C25.1489 9.5312 23.6674 7.44104 21.6895 5.89956C19.8353 4.45457 17.6215 3.55133 15.2931 3.28394L14.8256 3.23862C12.3265 3.0444 9.82515 3.58995 7.63326 4.80738C6.17336 5.6183 4.89519 6.7051 3.86111 7.99722H0C1.44665 5.49028 3.5464 3.41774 6.08273 2.00894Z" fill="white" fill-opacity="0.75"/>
<path d="M8.5618 6.12086C10.4032 5.13553 12.4839 4.68649 14.5673 4.82321C16.6507 4.95998 18.6548 5.67751 20.3519 6.89508C22.0488 8.11262 23.3719 9.78133 24.1709 11.7123C24.9699 13.6434 25.2125 15.7609 24.8725 17.8232C24.5322 19.8854 23.6223 21.8118 22.2458 23.3833C20.8692 24.9549 19.0803 26.1094 17.0823 26.7161L16.7062 26.824C15.8038 27.0639 14.8784 27.1864 13.9517 27.1959L19.3297 21.8123C19.5093 21.6421 19.6824 21.4642 19.8463 21.2771C20.8302 20.154 21.4806 18.7769 21.7238 17.3029C21.9668 15.8289 21.793 14.3159 21.222 12.9357C20.651 11.5555 19.7053 10.3629 18.4924 9.49278L18.263 9.33334C17.1008 8.55958 15.7542 8.10317 14.3582 8.01149L14.0796 7.99742C13.955 7.99362 13.8301 7.99384 13.7058 7.99586H6.01013C6.7643 7.25672 7.62217 6.62374 8.5618 6.12086Z" fill="white" fill-opacity="0.75"/>
<path d="M6.80029 25.3227C6.45406 25.6697 6.50193 26.2454 6.90072 26.5303C7.21597 26.7554 7.64759 26.7193 7.92152 26.4453L16.0895 18.2677C17.341 17.0147 17.341 14.983 16.0895 13.7301C15.4886 13.1285 14.6732 12.7904 13.8234 12.7904H4.89437C4.5376 12.7904 4.2231 13.0261 4.12242 13.3687C3.97121 13.8841 4.35721 14.4003 4.89382 14.4007L13.3632 14.4078C14.9643 14.4086 15.7658 16.3467 14.6334 17.4805L6.80029 25.3227ZM10.1816 28.708C8.80319 30.0877 6.63062 30.2685 5.04397 29.135C3.03705 27.7011 2.79697 24.8055 4.54019 23.06L9.98852 17.6053L4.89216 17.6009C2.22245 17.5992 0.302874 15.0297 1.05618 12.4655C1.55693 10.761 3.11973 9.5907 4.89437 9.5907H13.8234C15.5209 9.5907 17.1493 10.2656 18.3496 11.4673C20.8493 13.97 20.8493 18.0277 18.3496 20.5304L10.1816 28.708Z" fill="white" fill-opacity="0.75"/>
</g>
<defs>
<clipPath id="clip0_242_1392">
<rect width="171" height="32" fill="white"/>
</clipPath>
</defs>
</svg>
