<svg width="272" height="36" viewBox="0 0 272 36" fill="none" xmlns="http://www.w3.org/2000/svg">
<g clip-path="url(#clip0_242_1439)">
<path fill-rule="evenodd" clip-rule="evenodd" d="M21.192 0C21.5428 0 21.8914 0.00839842 22.2379 0.0252292C22.2448 0.025565 22.2506 0.0200549 22.2506 0.0131369C22.2506 0.00645268 22.2561 0.00103401 22.2628 0.00103401H41.6349C42.0488 0.00124169 42.3841 0.336119 42.3841 0.749655C42.3841 0.948204 42.3052 1.13864 42.1648 1.27907L37.085 6.35294H47.9179C48.634 6.35294 49.2886 6.77425 49.5381 7.44483C50.3932 9.7425 50.8609 12.2284 50.8609 14.8235C50.8609 26.5189 41.3729 36 29.6689 36C29.3184 36 28.9699 35.9906 28.6236 35.9737C28.6164 35.9734 28.6103 35.9791 28.6103 35.9863C28.6103 35.9933 28.6047 35.999 28.5976 35.999H9.22602C8.81221 35.9987 8.47683 35.6638 8.47683 35.2504C8.47684 35.0518 8.55573 34.8613 8.69619 34.7209L13.7738 29.6471H2.94298C2.22701 29.6471 1.57233 29.2258 1.32278 28.5552C0.467739 26.2575 0 23.7716 0 21.1765C0 9.48105 9.48803 0 21.192 0ZM28.4437 14.99C26.6946 12.9447 24.0955 11.6471 21.192 11.6471C15.9252 11.6471 11.6557 15.9135 11.6557 21.1765C11.6557 22.2905 11.8484 23.3592 12.1999 24.3529H19.0718L22.4172 21.01C24.1663 23.0553 26.7654 24.3529 29.6689 24.3529C34.9357 24.3529 39.2053 20.0865 39.2053 14.8235C39.2053 13.7095 39.0125 12.6408 38.661 11.6471H31.7891L28.4437 14.99Z" fill="white" fill-opacity="0.75"/>
<path d="M262.106 27.1565V14.4928C262.106 14.1279 261.777 13.7994 261.412 13.7994H260.937C260.645 13.7994 260.389 13.9819 260.28 14.2373L255.861 24.6749C255.24 26.2076 253.743 27.1565 252.099 27.1565C250.456 27.1565 248.995 26.2076 248.374 24.6749L243.918 14.2373C243.845 13.9819 243.589 13.7994 243.298 13.7994H242.823C242.457 13.7994 242.129 14.1279 242.129 14.4928V27.1565H238.002V14.4928C238.002 11.8287 240.157 9.63904 242.823 9.63904H243.298C245.233 9.63904 246.986 10.8069 247.753 12.6315L252.099 22.9231L256.445 12.6315C257.212 10.8069 258.966 9.63904 260.937 9.63904H261.412C264.079 9.63904 266.233 11.8287 266.233 14.4928V27.1565H262.106Z" fill="white" fill-opacity="0.75"/>
<path d="M219.166 27.1565C214.965 27.1565 211.569 23.7625 211.569 19.5656V9.63904H215.696V19.5656C215.696 21.4633 217.267 23.0326 219.166 23.0326H227.931C229.83 23.0326 231.401 21.4633 231.401 19.5656V9.63904H235.528V19.5656C235.528 23.7625 232.131 27.1565 227.931 27.1565H219.166Z" fill="white" fill-opacity="0.75"/>
<path d="M203.966 23.0326C204.66 23.0326 205.245 22.4486 205.245 21.7553C205.245 21.0618 204.696 20.5145 204.039 20.4779H194.288C191.293 20.4779 188.882 18.0693 188.882 15.0767C188.882 12.0842 191.293 9.63904 194.288 9.63904H209.408V13.7994H194.288C193.594 13.7994 193.009 14.3833 193.009 15.0767C193.009 15.7701 193.594 16.354 194.288 16.354H204.112C207.033 16.427 209.408 18.7992 209.408 21.7553C209.408 24.7479 206.96 27.1565 203.966 27.1565H188.882V23.0326H203.966Z" fill="white" fill-opacity="0.75"/>
<path d="M165.708 27.1565V14.4928C165.708 11.8287 167.863 9.63904 170.529 9.63904H181.157C184.589 9.63904 187.365 12.4491 187.365 15.8796C187.365 19.3101 184.589 22.1202 181.157 22.1202H169.834V27.1565H165.708ZM169.834 14.4928V17.9598H181.157C182.289 17.9598 183.238 17.0109 183.238 15.8796C183.238 14.7482 182.289 13.7994 181.157 13.7994H170.529C170.163 13.7994 169.834 14.1279 169.834 14.4928Z" fill="white" fill-opacity="0.75"/>
<path d="M158.756 9.63904H162.883V27.1565H158.756V9.63904Z" fill="white" fill-opacity="0.75"/>
<path d="M147.823 23.0326C150.38 23.0326 152.461 20.9524 152.461 18.3977C152.461 15.8796 150.38 13.7994 147.823 13.7994H141.395C138.839 13.7994 136.757 15.8796 136.757 18.3977C136.757 20.9524 138.839 23.0326 141.395 23.0326H147.823ZM147.823 9.63904C152.68 9.63904 156.588 13.5804 156.588 18.3977C156.588 23.2515 152.68 27.1565 147.823 27.1565H141.395C136.538 27.1565 132.631 23.2515 132.631 18.3977C132.631 13.5804 136.538 9.63904 141.395 9.63904H147.823Z" fill="white" fill-opacity="0.75"/>
<path d="M116.572 27.1565C111.715 27.1565 107.807 23.2515 107.807 18.3977C107.807 13.5804 111.715 9.63904 116.572 9.63904H129.245V13.7994H116.572C114.016 13.7994 111.934 15.8796 111.934 18.3977C111.934 20.9524 114.016 23.0326 116.572 23.0326H125.886C126.579 23.0326 127.164 22.4486 127.164 21.7553C127.164 21.0618 126.579 20.4779 125.886 20.4779H115.878V16.354H125.886C128.88 16.354 131.327 18.7627 131.327 21.7553C131.327 24.7479 128.88 27.1565 125.886 27.1565H116.572Z" fill="white" fill-opacity="0.75"/>
<path d="M97.6777 23.0326C100.234 23.0326 102.315 20.9524 102.315 18.3977C102.315 15.8796 100.234 13.7994 97.6777 13.7994H91.2497C88.693 13.7994 86.6113 15.8796 86.6113 18.3977C86.6113 20.9524 88.693 23.0326 91.2497 23.0326H97.6777ZM97.6777 9.63904C102.535 9.63904 106.442 13.5804 106.442 18.3977C106.442 23.2515 102.535 27.1565 97.6777 27.1565H91.2497C86.3922 27.1565 82.4844 23.2515 82.4844 18.3977C82.4844 13.5804 86.3922 9.63904 91.2497 9.63904H97.6777Z" fill="white" fill-opacity="0.75"/>
<path d="M65.584 22.339C65.584 22.704 65.9126 23.0325 66.2778 23.0325H81.7265V27.1564H66.2778C63.6118 27.1564 61.457 25.0032 61.457 22.339V9.52942H65.584V22.339Z" fill="white" fill-opacity="0.75"/>
<path d="M271.259 9.52952C271.259 10.6991 270.309 11.6471 269.14 11.6471C267.969 11.6471 267.02 10.6991 267.02 9.52952C267.02 8.35997 267.969 7.41187 269.14 7.41187C270.309 7.41187 271.259 8.35997 271.259 9.52952Z" fill="white" fill-opacity="0.75"/>
</g>
<defs>
<clipPath id="clip0_242_1439">
<rect width="272" height="36" fill="white"/>
</clipPath>
</defs>
</svg>
